<svg id="Layer_5" enable-background="new 0 0 64 64" height="512" viewBox="0 0 64 64" width="512" xmlns="http://www.w3.org/2000/svg"><g><g><g><path d="m32 10c4.7 0 9.06 1.48 12.64 4h-10.64c-1.1 0-2 .9-2 2 0 .55.22 1.05.59 1.41.36.37.86.59 1.41.59h4c1.1 0 2 .9 2 2 0 .55-.22 1.05-.59 1.41-.36.37-.86.59-1.41.59h-7c-1.1 0-2 .9-2 2 0 .55.22 1.05.59 1.41.36.37.86.59 1.41.59h11c1.1 0 2 .9 2 2 0 .55.22 1.05.59 1.41.36.37.86.59 1.41.59h7.91c.06.66.09 1.32.09 2 0 .67-.03 1.34-.09 2h-19.47c-.86 0-1.62.55-1.9 1.37l-.08.26c-.28.82-1.04 1.37-1.9 1.37h-2.56c-1.1 0-2 .9-2 2v1c0 1.1-.9 2-2 2h-1c-1.1 0-2 .9-2 2 0 .55.22 1.05.59 1.41.36.37.86.59 1.41.59h7c1.1 0 2 .9 2 2 0 .55.22 1.05.59 1.41.36.37.86.59 1.41.59h6.54c.37.65.92 1.18 1.58 1.53-3.02 1.57-6.47 2.47-10.12 2.47-10.78 0-19.76-7.76-21.63-18h7.63c1.1 0 2-.9 2-2 0-.55-.22-1.05-.59-1.41-.36-.37-.86-.59-1.41-.59s-1.05-.22-1.41-.59c-.37-.36-.59-.86-.59-1.41s.22-1.05.59-1.41c.36-.37.86-.59 1.41-.59h3c1.1 0 2-.9 2-2 0-.55-.22-1.05-.59-1.41-.36-.37-.86-.59-1.41-.59h-9.49c.85-2.19 2.05-4.22 3.52-6h3.97c2.76 0 5-2.24 5-5 0-.49-.07-.96-.2-1.41 2.53-1.02 5.3-1.59 8.2-1.59z" fill="#69d6f4"/></g><g><path d="m34.44 34h19.47c-.18 1.96-.61 3.85-1.27 5.62-.8-.4-1.69-.62-2.64-.62-2.98 0-5.44 2.17-5.91 5.01-.03 0-.06-.01-.09-.01-2.21 0-4 1.79-4 4 0 .73.2 1.41.54 2h-6.54c-.55 0-1.05-.22-1.41-.59-.37-.36-.59-.86-.59-1.41 0-1.1-.9-2-2-2h-7c-.55 0-1.05-.22-1.41-.59-.37-.36-.59-.86-.59-1.41 0-1.1.9-2 2-2h1c1.1 0 2-.9 2-2v-1c0-1.1.9-2 2-2h2.56c.86 0 1.62-.55 1.9-1.37l.08-.26c.28-.82 1.04-1.37 1.9-1.37z" fill="#b4dd7f"/></g><g><path d="m22.41 24.59c.37.36.59.86.59 1.41 0 1.1-.9 2-2 2h-3c-.55 0-1.05.22-1.41.59-.37.36-.59.86-.59 1.41s.22 1.05.59 1.41c.36.37.86.59 1.41.59s1.05.22 1.41.59c.37.36.59.86.59 1.41 0 1.1-.9 2-2 2h-7.63c-.25-1.3-.37-2.63-.37-4 0-2.82.53-5.52 1.51-8h9.49c.55 0 1.05.22 1.41.59z" fill="#b4dd7f"/></g><g><path d="m53.91 30h-7.91c-.55 0-1.05-.22-1.41-.59-.37-.36-.59-.86-.59-1.41 0-1.1-.9-2-2-2h-11c-.55 0-1.05-.22-1.41-.59-.37-.36-.59-.86-.59-1.41 0-1.1.9-2 2-2h7c.55 0 1.05-.22 1.41-.59.37-.36.59-.86.59-1.41 0-1.1-.9-2-2-2h-4c-.55 0-1.05-.22-1.41-.59-.37-.36-.59-.86-.59-1.41 0-1.1.9-2 2-2h10.64c5.15 3.61 8.67 9.38 9.27 16z" fill="#b4dd7f"/></g><g><path d="m24 7c0 1.13-.39 2.15-1.01 2.99-.91-1.21-2.36-1.99-3.99-1.99-.58 0-1.13.12-1.65.3-.65-1.29-1.74-2.31-3.08-2.85.66-1.99 2.51-3.45 4.73-3.45 2.76 0 5 2.24 5 5z" fill="#fcd770"/></g><g><path d="m23.8 11.59c.13.45.2.92.2 1.41 0 2.76-2.24 5-5 5h-3.97-8.78-.25c-2.21 0-4-1.79-4-4s1.79-4 4-4c.03 0 .06.01.09.01.47-2.84 2.93-5.01 5.91-5.01.8 0 1.57.16 2.27.45 1.34.54 2.43 1.56 3.08 2.85.52-.18 1.07-.3 1.65-.3 1.63 0 3.08.78 3.99 1.99.36.47.64 1.02.81 1.6z" fill="#e6e9ed"/></g><g><path d="m42.12 51.53c-.66-.35-1.21-.88-1.58-1.53-.34-.59-.54-1.27-.54-2 0-2.21 1.79-4 4-4 .03 0 .06.01.09.01.47-2.84 2.93-5.01 5.91-5.01.95 0 1.84.22 2.64.62 1.17.57 2.12 1.51 2.71 2.68.52-.18 1.07-.3 1.65-.3 2.76 0 5 2.24 5 5s-2.24 5-5 5h-2-4-4-3c-.68 0-1.32-.17-1.88-.47z" fill="#e6e9ed"/></g><g><path d="m52 9c1.66 0 3 1.34 3 3 0 .99-.48 1.87-1.22 2.41-.5.37-1.11.59-1.78.59-1.66 0-3-1.34-3-3 0-.67.22-1.28.59-1.78.54-.74 1.42-1.22 2.41-1.22z" fill="#ff826e"/></g><g><path d="m14.41 53.79c-.55.74-1.42 1.21-2.41 1.21-1.66 0-3-1.34-3-3 0-.99.48-1.87 1.22-2.41.5-.37 1.11-.59 1.78-.59 1.66 0 3 1.34 3 3 0 .67-.22 1.29-.59 1.79z" fill="#ff826e"/></g></g><g><path d="m46 61h2v2h-2z"/><path d="m50 61h2v2h-2z"/><path d="m54 61h2v2h-2z"/><path d="m32 5c5.882 0 11.628 1.96 16.297 5.501-.188.463-.297.968-.297 1.499 0 2.206 1.794 4 4 4 .531 0 1.035-.109 1.499-.297 3.541 4.669 5.501 10.415 5.501 16.297 0 2.287-.286 4.559-.851 6.751l1.937.499c.606-2.355.914-4.794.914-7.25 0-6.315-2.104-12.484-5.904-17.499.556-.687.904-1.55.904-2.501 0-2.206-1.794-4-4-4-.951 0-1.814.347-2.501.904-5.015-3.8-11.184-5.904-17.499-5.904-1.718 0-3.439.151-5.116.45l.351 1.969c1.561-.278 3.164-.419 4.765-.419zm20 5c1.103 0 2 .897 2 2s-.897 2-2 2-2-.897-2-2 .897-2 2-2z"/><path d="m32 59c-5.882 0-11.628-1.96-16.297-5.5.188-.464.297-.969.297-1.5 0-2.206-1.794-4-4-4-.531 0-1.035.109-1.499.297-3.541-4.669-5.501-10.415-5.501-16.297 0-3.685.729-7.256 2.167-10.615l-1.839-.787c-1.545 3.609-2.328 7.445-2.328 11.402 0 6.315 2.104 12.484 5.904 17.499-.557.687-.904 1.55-.904 2.501 0 2.206 1.794 4 4 4 .951 0 1.814-.347 2.501-.904 5.015 3.8 11.184 5.904 17.499 5.904 4.348 0 8.529-.939 12.427-2.791l-.858-1.807c-3.628 1.724-7.52 2.598-11.569 2.598zm-20-5c-1.103 0-2-.897-2-2s.897-2 2-2 2 .897 2 2-.897 2-2 2z"/><path d="m57 41c-.389 0-.777.042-1.173.127-.529-.798-1.21-1.459-1.987-1.971.756-2.307 1.16-4.706 1.16-7.156 0-12.682-10.318-23-23-23-2.62 0-5.179.464-7.634 1.331-.06-.12-.123-.238-.191-.353.533-.913.825-1.926.825-2.978 0-3.309-2.691-6-6-6-2.248 0-4.263 1.258-5.285 3.212-.552-.139-1.127-.212-1.715-.212-3.158 0-5.867 2.081-6.719 5.051-2.417.35-4.281 2.436-4.281 4.949 0 2.757 2.243 5 5 5h7.028c-2.608 3.809-4.028 8.353-4.028 13 0 12.682 10.318 23 23 23 3.559 0 6.966-.802 10.14-2.367.576.232 1.202.367 1.86.367h2v6h2v-6h2v6h2v-6h2v6h2v-6h1c3.309 0 6-2.691 6-6s-2.691-6-6-6zm-7-3c-3.158 0-5.867 2.081-6.719 5.051-2.417.35-4.281 2.436-4.281 4.949 0 .342.035.677.101 1h-5.101c-.551 0-1-.449-1-1 0-1.654-1.346-3-3-3h-7c-.551 0-1-.449-1-1s.449-1 1-1h1c1.654 0 3-1.346 3-3v-1c0-.551.449-1 1-1h2.559c1.293 0 2.437-.824 2.847-2.053l.087-.263c.136-.409.517-.684.948-.684h18.326c-.161 1.121-.413 2.224-.753 3.306-.644-.193-1.318-.306-2.014-.306zm2.76-9h-6.76c-.551 0-1-.449-1-1 0-1.654-1.346-3-3-3h-11c-.551 0-1-.449-1-1s.449-1 1-1h7c1.654 0 3-1.346 3-3s-1.346-3-3-3h-4c-.551 0-1-.449-1-1s.449-1 1-1h10.279c4.502 3.261 7.654 8.254 8.481 14zm-33.76-26c2.206 0 4 1.794 4 4 0 .456-.086.903-.242 1.33-1.029-.83-2.336-1.33-3.758-1.33-.389 0-.777.042-1.173.127-.587-.887-1.363-1.605-2.25-2.135.704-1.214 1.989-1.992 3.423-1.992zm-16 11c0-1.654 1.346-3 2.901-3.006l1.032.028.142-.85c.403-2.417 2.474-4.172 4.925-4.172 1.894 0 3.603 1.054 4.46 2.751l.396.783.828-.29c.467-.164.898-.244 1.316-.244 2.206 0 4 1.794 4 4s-1.794 4-4 4h-13c-1.654 0-3-1.346-3-3zm9.207 11h8.793c.551 0 1 .449 1 1s-.449 1-1 1h-3c-1.654 0-3 1.346-3 3s1.346 3 3 3c.551 0 1 .449 1 1s-.449 1-1 1h-6.76c-.142-.983-.24-1.979-.24-3 0-2.398.418-4.766 1.207-7zm-.58 12h6.373c1.654 0 3-1.346 3-3s-1.346-3-3-3c-.551 0-1-.449-1-1s.449-1 1-1h3c1.654 0 3-1.346 3-3s-1.346-3-3-3h-7.962c.672-1.418 1.507-2.758 2.488-4h3.474c3.309 0 6-2.691 6-6 0-.257-.021-.508-.053-.756 2.267-.811 4.631-1.244 7.053-1.244 3.179 0 6.183.73 8.886 2h-6.886c-1.654 0-3 1.346-3 3s1.346 3 3 3h4c.551 0 1 .449 1 1s-.449 1-1 1h-7c-1.654 0-3 1.346-3 3s1.346 3 3 3h11c.551 0 1 .449 1 1 0 1.654 1.346 3 3 3h6.949c.016.334.051.662.051 1 0 .335-.028.667-.044 1h-18.515c-1.293 0-2.437.824-2.847 2.053l-.087.263c-.136.409-.517.684-.948.684h-2.559c-1.654 0-3 1.346-3 3v1c0 .551-.449 1-1 1h-1c-1.654 0-3 1.346-3 3s1.346 3 3 3h7c.551 0 1 .449 1 1 0 1.654 1.346 3 3 3h6.026c.078.102.16.201.245.297-2.614 1.127-5.387 1.703-8.271 1.703-9.854 0-18.121-6.831-20.373-16zm45.373 14h-13c-1.654 0-3-1.346-3-3s1.346-3 2.901-3.006l1.032.028.142-.85c.403-2.417 2.474-4.172 4.925-4.172 1.894 0 3.603 1.054 4.46 2.751l.396.783.828-.29c.467-.164.898-.244 1.316-.244 2.206 0 4 1.794 4 4s-1.794 4-4 4z"/></g></g></svg>