<svg id="direction" enable-background="new 0 0 300 300" height="512" viewBox="0 0 300 300" width="512" xmlns="http://www.w3.org/2000/svg"><g><circle cx="136" cy="136.666" fill="#e6f4f3" r="92"/><circle cx="40.328" cy="103.057" fill="#4c241d" r="4.276"/><circle cx="152.328" cy="63.057" fill="#4c241d" r="4.276"/><circle cx="232.328" cy="63.057" fill="#4c241d" r="4.276"/><circle cx="64.328" cy="67.057" fill="#4c241d" r="4.276"/><path d="m92.182 65.111c-1.023 0-2.047-.391-2.828-1.172-1.562-1.561-1.562-4.094 0-5.656l11.791-11.793c1.562-1.562 4.094-1.562 5.656 0 1.562 1.561 1.562 4.094 0 5.656l-11.791 11.794c-.781.781-1.805 1.171-2.828 1.171z" fill="#4c241d"/><path d="m103.973 65.111c-1.023 0-2.047-.391-2.828-1.172l-11.791-11.792c-1.562-1.562-1.562-4.096 0-5.656 1.562-1.562 4.094-1.562 5.656 0l11.791 11.793c1.562 1.562 1.562 4.096 0 5.656-.781.781-1.805 1.171-2.828 1.171z" fill="#4c241d"/><g><path d="m75.917 104.666-16.083 64h32.166z" fill="#a9ba5a"/><path d="m92 172.666h-32.166c-1.232 0-2.396-.568-3.154-1.541-.758-.971-1.025-2.238-.725-3.434l16.084-64c.447-1.779 2.045-3.025 3.879-3.025 1.834 0 3.432 1.246 3.879 3.025l16.082 64c.301 1.195.033 2.463-.725 3.434-.757.973-1.922 1.541-3.154 1.541zm-27.037-8h21.908l-10.953-43.588z" fill="#4c241d"/></g><g><path d="m183.917 40.666-16.083 96h32.166z" fill="#a9ba5a"/><path d="m200 140.666h-32.166c-1.176 0-2.293-.518-3.053-1.416s-1.086-2.084-.893-3.244l16.084-96c.322-1.928 1.992-3.34 3.945-3.34 1.955 0 3.623 1.412 3.945 3.34l16.082 96c.193 1.16-.133 2.346-.893 3.244s-1.875 1.416-3.051 1.416zm-27.439-8h22.713l-11.355-67.791z" fill="#4c241d"/></g><g><path d="m207.917 72.666-16.083 64h32.166z" fill="#a9ba5a"/><path d="m224 140.666h-32.166c-1.232 0-2.396-.568-3.154-1.541-.758-.971-1.025-2.238-.725-3.434l16.084-64c.447-1.779 2.045-3.025 3.879-3.025 1.834 0 3.432 1.246 3.879 3.025l16.082 64c.301 1.195.033 2.463-.725 3.434-.757.973-1.922 1.541-3.154 1.541zm-27.037-8h21.908l-10.953-43.588z" fill="#4c241d"/></g><g><path d="m103.917 92.666-16.083 64h32.166z" fill="#a9ba5a"/><path d="m120 160.666h-32.166c-1.232 0-2.396-.568-3.154-1.541-.758-.971-1.025-2.238-.725-3.434l16.084-64c.447-1.779 2.045-3.025 3.879-3.025 1.834 0 3.432 1.246 3.879 3.025l16.082 64c.301 1.195.033 2.463-.725 3.434-.757.973-1.922 1.541-3.154 1.541zm-27.037-8h21.908l-10.953-43.588z" fill="#4c241d"/></g><g><path d="m127.917 68.666-16.083 84h32.166z" fill="#a9ba5a"/><path d="m144 156.666h-32.166c-1.193 0-2.322-.531-3.082-1.451-.762-.92-1.07-2.129-.846-3.301l16.084-84c.359-1.885 2.008-3.248 3.928-3.248 1.92 0 3.568 1.363 3.928 3.248l16.082 84c.225 1.172-.084 2.381-.846 3.301-.76.92-1.889 1.451-3.082 1.451zm-27.328-8h22.49l-11.244-58.729z" fill="#4c241d"/></g><path d="m268 260.666v-180s-24 16-28 28-32 28-32 28h-48l-36 16s-20 0-36 0-56 28-56 28v80z" fill="#fff"/><path d="m32.004 184.666c-1.262 0-2.502-.594-3.281-1.707-1.266-1.809-.826-4.303.984-5.57 4.199-2.939 41.516-28.723 58.293-28.723h35.15l35.225-15.654c.512-.229 1.064-.346 1.625-.346h46.928c10.391-6.074 26.793-17.813 29.277-25.266 4.311-12.928 27.002-28.348 29.576-30.062 1.838-1.23 4.318-.729 5.547 1.109 1.225 1.838.729 4.32-1.109 5.547-6.359 4.244-23.504 17.176-26.424 25.938-4.357 13.072-30.809 28.492-33.811 30.207-.604.346-1.289.527-1.984.527h-47.15l-35.225 15.654c-.512.229-1.064.346-1.625.346h-36c-12.092 0-42.867 19.689-53.707 27.277-.697.489-1.498.723-2.289.723z" fill="#4c241d"/><g><path d="m236 236.666s-40-20-57.022-1.561" fill="#fff"/><path d="m235.996 240.666c-.6 0-1.209-.135-1.783-.422-.373-.182-37.514-18.428-52.295-2.426-1.494 1.623-4.025 1.727-5.652.227-1.623-1.498-1.725-4.029-.227-5.652 18.836-20.418 60.004-.176 61.75.695 1.975.988 2.775 3.389 1.789 5.365-.701 1.403-2.115 2.213-3.582 2.213z" fill="#4c241d"/></g><g><path d="m92 236.666s68-36 91.74 3.274" fill="#fff"/><path d="m183.744 243.941c-1.354 0-2.676-.688-3.428-1.932-21.537-35.633-85.797-2.154-86.445-1.809-1.951 1.037-4.371.287-5.406-1.664-1.033-1.951-.289-4.373 1.664-5.406.715-.379 17.74-9.316 38.035-13.475 27.939-5.725 48.338.576 59 18.217 1.143 1.891.535 4.35-1.355 5.492-.647.392-1.36.577-2.065.577z" fill="#4c241d"/></g><g fill="#4c241d"><circle cx="60.328" cy="223.057" r="4.276"/><circle cx="84.328" cy="187.057" r="4.276"/><circle cx="120.328" cy="203.057" r="4.276"/><circle cx="88.328" cy="251.057" r="4.276"/><circle cx="156.328" cy="259.057" r="4.276"/><circle cx="244.328" cy="187.057" r="4.276"/><circle cx="260.328" cy="135.057" r="4.276"/></g><g><path d="m196 160.666h12v76h-12z" fill="#bf7e68"/><path d="m208 240.666h-12c-2.209 0-4-1.791-4-4v-76c0-2.209 1.791-4 4-4h12c2.209 0 4 1.791 4 4v76c0 2.209-1.791 4-4 4zm-8-8h4v-68h-4z" fill="#4c241d"/></g><g><path d="m196 192.666h-52l-16-12 16-12h52z" fill="#bf7e68"/><path d="m196 196.666h-52c-.865 0-1.707-.281-2.4-.801l-16-12c-1.008-.754-1.6-1.939-1.6-3.199s.592-2.445 1.6-3.199l16-12c.693-.52 1.535-.801 2.4-.801h52c2.209 0 4 1.791 4 4v24c0 2.209-1.791 4-4 4zm-50.666-8h46.666v-16h-46.666l-10.668 8z" fill="#4c241d"/></g></g></svg>